# xmcd
#
# Track frame offsets:
#	150
#	26550
#	53881
#	73747
#	94265
#	130346
#	158155
#	178099
#	197951
#	222071
#	243847
#	265077
#	291014
#
# Disc length: 4156 seconds
#
# Revision: 1
# Processed by: cddbd v1.5.2PL0 Copyright (c) Steve Scherf et al.
# Submitted via: audiograbber 1.83.01
#
DISCID=bf103a0d
DTITLE=Matt Smith - What I Feel For You
DYEAR=2006
DGENRE=Blues
TTITLE0=A Rainy Night In Georgia
TTITLE1=Baby It's Cold Outside
TTITLE2=Don't Let The Sun Catch You
TTITLE3=Crying
TTITLE4=You've Got A Friend
TTITLE5=Black Coffee
TTITLE6=I Wish You Love
TTITLE7=Smoke Get's In Your Eyes
TTITLE8=In A Sentimental Mood
TTITLE9=Save Your Love For Me
TTITLE10=Tell It Like It Is
TTITLE11=Amazing Grace
TTITLE12=What I Feel For You
EXTD=
EXTT0=
EXTT1=
EXTT2=
EXTT3=
EXTT4=
EXTT5=
EXTT6=
EXTT7=
EXTT8=
EXTT9=
EXTT10=
EXTT11=
EXTT12=
PLAYORDER=
